<?xml version="1.0" encoding="utf-8"?>
<!-- generated at drububu.com  -->
<!DOCTYPE svg PUBLIC "-//W3C//DTD SVG 1.1//EN" "http://www.w3.org/Graphics/SVG/1.1/DTD/svg11.dtd">
<svg version="1.1" preserveAspectRatio="xMinYMin meet" xmlns="http://www.w3.org/2000/svg" xmlns:xlink="http://www.w3.org/1999/xlink" x="0px" y="0px" width="16px" height="16px" viewBox="0 0 16 16">
<path d="M0 0h4v1h-3v1h-1v-2z" fill="rgb(80,78,78)"/>
<path d="M4 0h1v1h-1v-1z" fill="rgb(60,59,59)"/>
<path d="M5 0h3v1h-3v-1z" fill="rgb(80,78,78)"/>
<path d="M8 0h3v1h-3v-1z" fill="rgb(60,59,59)"/>
<path d="M11 0h1v1h-1v-1z" fill="rgb(80,78,78)"/>
<path d="M12 0h2v1h-2v-1z" fill="rgb(60,59,59)"/>
<path d="M14 0h2v4h-1v-3h-1v-1z" fill="rgb(80,78,78)"/>
<path d="M1 1h2v1h-2v-1z" fill="rgb(104,104,104)"/>
<path d="M3 1h2v2h-1v-1h-1v-1z" fill="rgb(119,119,119)"/>
<path d="M5 1h1v1h-1v-1z" fill="rgb(104,104,104)"/>
<path d="M6 1h1v1h-1v-1z" fill="rgb(119,119,119)"/>
<path d="M7 1h1v1h-1v-1z" fill="rgb(104,104,104)"/>
<path d="M8 1h2v1h-2v-1z" fill="rgb(119,119,119)"/>
<path d="M10 1h1v1h-1v-1z" fill="rgb(104,104,104)"/>
<path d="M11 1h1v1h-1v-1z" fill="rgb(119,119,119)"/>
<path d="M12 1h1v1h-1v-1z" fill="rgb(104,104,104)"/>
<path d="M13 1h1v1h-1v-1z" fill="rgb(119,119,119)"/>
<path d="M14 1h1v1h-1v-1z" fill="rgb(93,91,91)"/>
<path d="M0 2h1v1h-1v-1z" fill="rgb(60,59,59)"/>
<path d="M1 2h1v1h-1v-1z" fill="rgb(93,91,91)"/>
<path d="M2 2h1v1h-1v-1z" fill="rgb(119,119,119)"/>
<path d="M3 2h1v1h-1v-1z" fill="rgb(145,145,145)"/>
<path d="M5 2h1v1h-1v-1z" fill="rgb(133,133,133)"/>
<path d="M6 2h1v1h-1v-1z" fill="rgb(104,104,104)"/>
<path d="M7 2h1v1h-1v-1z" fill="rgb(119,119,119)"/>
<path d="M8 2h1v1h-1v-1z" fill="rgb(133,133,133)"/>
<path d="M9 2h1v1h-1v-1z" fill="rgb(145,145,145)"/>
<path d="M10 2h1v1h-1v-1z" fill="rgb(133,133,133)"/>
<path d="M11 2h1v1h-1v-1z" fill="rgb(145,145,145)"/>
<path d="M12 2h1v1h-1v-1z" fill="rgb(119,119,119)"/>
<path d="M13 2h1v1h-1v-1z" fill="rgb(104,104,104)"/>
<path d="M14 2h1v1h-1v-1z" fill="rgb(119,119,119)"/>
<path d="M0 3h1v2h-1v-2z" fill="rgb(80,78,78)"/>
<path d="M1 3h1v1h-1v-1z" fill="rgb(104,104,104)"/>
<path d="M2 3h2v1h-1v1h-1v-2z" fill="rgb(133,133,133)"/>
<path d="M4 3h1v1h-1v-1z" fill="rgb(60,59,59)"/>
<path d="M5 3h6v1h-6v-1z" fill="rgb(33,33,33)"/>
<path d="M11 3h1v1h-1v-1z" fill="rgb(60,59,59)"/>
<path d="M12 3h1v1h-1v-1z" fill="rgb(133,133,133)"/>
<path d="M13 3h1v2h-1v-2z" fill="rgb(119,119,119)"/>
<path d="M14 3h1v1h-1v-1z" fill="rgb(104,104,104)"/>
<path d="M1 4h1v5h-1v-5z" fill="rgb(119,119,119)"/>
<path d="M3 4h1v1h-1v-1z" fill="rgb(60,59,59)"/>
<path d="M4 4h8v1h1v2h-2v-1h-1v-1h-4v1h-1v1h-2v-2h1v-1z" fill="rgb(17,17,17)"/>
<path d="M12 4h1v1h-1v-1z" fill="rgb(60,59,59)"/>
<path d="M14 4h1v3h-1v-3z" fill="rgb(93,91,91)"/>
<path d="M15 4h1v2h-1v-2z" fill="rgb(60,59,59)"/>
<path d="M0 5h1v1h-1v-1z" fill="rgb(60,59,59)"/>
<path d="M2 5h1v2h-1v-2z" fill="rgb(104,104,104)"/>
<path d="M6 5h4v1h-4v-1z" fill="rgb(33,33,33)"/>
<path d="M13 5h1v3h-1v-3z" fill="rgb(145,145,145)"/>
<path d="M0 6h1v1h-1v-1z" fill="rgb(80,78,78)"/>
<path d="M5 6h6v1h-6v-1z" fill="rgb(60,59,59)"/>
<path d="M15 6h1v1h-1v-1z" fill="rgb(80,78,78)"/>
<path d="M0 7h1v2h-1v-2z" fill="rgb(60,59,59)"/>
<path d="M2 7h1v1h-1v-1z" fill="rgb(145,145,145)"/>
<path d="M3 7h2v1h-2v-1z" fill="rgb(168,168,168)"/>
<path d="M5 7h6v1h-6v-1z" fill="rgb(176,176,176)"/>
<path d="M11 7h2v1h-2v-1z" fill="rgb(168,168,168)"/>
<path d="M14 7h1v1h-1v-1z" fill="rgb(119,119,119)"/>
<path d="M15 7h1v1h-1v-1z" fill="rgb(60,59,59)"/>
<path d="M2 8h1v1h-1v-1z" fill="rgb(133,133,133)"/>
<path d="M3 8h1v1h-1v-1z" fill="rgb(119,119,119)"/>
<path d="M4 8h1v1h-1v-1z" fill="rgb(104,104,104)"/>
<path d="M5 8h1v1h-1v-1z" fill="rgb(93,91,91)"/>
<path d="M6 8h1v1h-1v-1z" fill="rgb(119,119,119)"/>
<path d="M7 8h1v1h-1v-1z" fill="rgb(104,104,104)"/>
<path d="M8 8h1v1h-1v-1z" fill="rgb(93,91,91)"/>
<path d="M9 8h1v1h-1v-1z" fill="rgb(104,104,104)"/>
<path d="M10 8h1v1h-1v-1z" fill="rgb(119,119,119)"/>
<path d="M11 8h1v1h-1v-1z" fill="rgb(104,104,104)"/>
<path d="M12 8h1v1h-1v-1z" fill="rgb(119,119,119)"/>
<path d="M13 8h2v1h-2v-1z" fill="rgb(104,104,104)"/>
<path d="M15 8h1v2h-1v-2z" fill="rgb(80,78,78)"/>
<path d="M0 9h1v5h-1v-5z" fill="rgb(80,78,78)"/>
<path d="M1 9h1v1h-1v-1z" fill="rgb(197,197,197)"/>
<path d="M2 9h1v1h-1v-1z" fill="rgb(176,176,176)"/>
<path d="M3 9h11v1h-11v-1z" fill="rgb(197,197,197)"/>
<path d="M14 9h1v1h-1v-1z" fill="rgb(168,168,168)"/>
<path d="M1 10h3v1h-1v1h-1v-1h-1v-1z" fill="rgb(168,168,168)"/>
<path d="M4 10h1v1h-1v-1z" fill="rgb(176,176,176)"/>
<path d="M5 10h1v1h-1v-1z" fill="rgb(168,168,168)"/>
<path d="M6 10h4v1h-4v-1z" fill="rgb(133,133,133)"/>
<path d="M10 10h1v1h-1v-1z" fill="rgb(168,168,168)"/>
<path d="M11 10h1v1h-1v-1z" fill="rgb(176,176,176)"/>
<path d="M12 10h1v1h-1v-1z" fill="rgb(168,168,168)"/>
<path d="M13 10h1v1h-1v-1z" fill="rgb(176,176,176)"/>
<path d="M14 10h1v3h-1v-3z" fill="rgb(157,157,157)"/>
<path d="M15 10h1v1h-1v-1z" fill="rgb(60,59,59)"/>
<path d="M1 11h1v1h-1v-1z" fill="rgb(157,157,157)"/>
<path d="M3 11h1v1h-1v-1z" fill="rgb(145,145,145)"/>
<path d="M4 11h1v1h-1v-1z" fill="rgb(93,91,91)"/>
<path d="M5 11h1v1h-1v-1z" fill="rgb(33,33,33)"/>
<path d="M6 11h4v1h-4v-1z" fill="rgb(17,17,17)"/>
<path d="M10 11h1v1h-1v-1z" fill="rgb(33,33,33)"/>
<path d="M11 11h1v1h-1v-1z" fill="rgb(255,143,0)"/>
<path d="M12 11h1v1h-1v-1z" fill="rgb(145,145,145)"/>
<path d="M13 11h1v1h-1v-1z" fill="rgb(168,168,168)"/>
<path d="M15 11h1v3h-1v-3z" fill="rgb(80,78,78)"/>
<path d="M1 12h2v2h-1v-1h-1v-1z" fill="rgb(145,145,145)"/>
<path d="M3 12h1v1h-1v-1z" fill="rgb(80,78,78)"/>
<path d="M4 12h1v1h-1v-1z" fill="rgb(255,143,0)"/>
<path d="M5 12h1v1h-1v-1z" fill="rgb(17,17,17)"/>
<path d="M6 12h1v1h-1v-1z" fill="rgb(195,93,27)"/>
<path d="M7 12h2v1h-2v-1z" fill="rgb(255,143,0)"/>
<path d="M9 12h1v1h-1v-1z" fill="rgb(195,93,27)"/>
<path d="M10 12h2v1h-2v-1z" fill="rgb(255,216,0)"/>
<path d="M12 12h1v1h-1v-1z" fill="rgb(80,78,78)"/>
<path d="M13 12h1v1h-1v-1z" fill="rgb(119,119,119)"/>
<path d="M1 13h1v1h-1v-1z" fill="rgb(119,119,119)"/>
<path d="M3 13h1v1h-1v-1z" fill="rgb(17,17,17)"/>
<path d="M4 13h2v1h-1v1h-1v-2z" fill="rgb(255,216,0)"/>
<path d="M6 13h1v1h-1v-1z" fill="rgb(255,143,0)"/>
<path d="M7 13h1v1h-1v-1z" fill="rgb(255,255,151)"/>
<path d="M8 13h2v1h-1v1h-1v-2z" fill="rgb(255,216,0)"/>
<path d="M10 13h1v2h-1v-2z" fill="rgb(255,255,151)"/>
<path d="M11 13h1v1h-1v-1z" fill="rgb(255,143,0)"/>
<path d="M12 13h1v1h-1v-1z" fill="rgb(17,17,17)"/>
<path d="M13 13h1v1h-1v-1z" fill="rgb(157,157,157)"/>
<path d="M14 13h1v1h-1v-1z" fill="rgb(145,145,145)"/>
<path d="M0 14h1v2h-1v-2z" fill="rgb(60,59,59)"/>
<path d="M1 14h1v1h-1v-1z" fill="rgb(145,145,145)"/>
<path d="M2 14h1v1h-1v-1z" fill="rgb(119,119,119)"/>
<path d="M3 14h1v1h-1v-1z" fill="rgb(195,93,27)"/>
<path d="M5 14h1v1h-1v-1z" fill="rgb(255,255,151)"/>
<path d="M6 14h1v1h-1v-1z" fill="rgb(255,216,0)"/>
<path d="M7 14h1v2h-1v-2z" fill="rgb(255,255,255)"/>
<path d="M9 14h1v1h-1v-1z" fill="rgb(255,255,255)"/>
<path d="M11 14h1v1h-1v-1z" fill="rgb(255,216,0)"/>
<path d="M12 14h1v1h-1v-1z" fill="rgb(195,93,27)"/>
<path d="M13 14h1v1h-1v-1z" fill="rgb(119,119,119)"/>
<path d="M14 14h1v1h-1v-1z" fill="rgb(157,157,157)"/>
<path d="M15 14h1v2h-1v-2z" fill="rgb(60,59,59)"/>
<path d="M1 15h1v1h-1v-1z" fill="rgb(104,104,104)"/>
<path d="M2 15h1v1h-1v-1z" fill="rgb(60,59,59)"/>
<path d="M3 15h2v1h-2v-1z" fill="rgb(255,143,0)"/>
<path d="M5 15h1v1h-1v-1z" fill="rgb(255,255,255)"/>
<path d="M6 15h1v1h-1v-1z" fill="rgb(255,255,151)"/>
<path d="M8 15h1v1h-1v-1z" fill="rgb(255,143,0)"/>
<path d="M9 15h1v1h-1v-1z" fill="rgb(255,255,151)"/>
<path d="M10 15h1v1h-1v-1z" fill="rgb(255,216,0)"/>
<path d="M11 15h1v1h-1v-1z" fill="rgb(255,143,0)"/>
<path d="M12 15h1v1h-1v-1z" fill="rgb(255,216,0)"/>
<path d="M13 15h1v1h-1v-1z" fill="rgb(60,59,59)"/>
<path d="M14 15h1v1h-1v-1z" fill="rgb(104,104,104)"/>
</svg>